<?xml version="1.0" encoding="utf-8"?>
<svg viewBox="0 0 96 32" width="96px" height="32px" class="train" xmlns="http://www.w3.org/2000/svg" xmlns:xlink="http://www.w3.org/1999/xlink" xmlns:bx="https://boxy-svg.com">
  <defs>
    <linearGradient gradientUnits="userSpaceOnUse" x1="47.893" y1="1.98" x2="47.893" y2="26.171" id="gradient-2-1" xlink:href="#gradient-2"/>
    <linearGradient id="gradient-2" bx:pinned="true">
      <stop offset="0.007" style="stop-color: rgb(165, 165, 165);"/>
      <stop offset="0.184" style="stop-color: rgb(97, 97, 97);"/>
      <stop offset="0.862" style="stop-color: rgb(102, 102, 102);"/>
      <stop offset="0.998" style="stop-color: rgb(165, 165, 165);"/>
    </linearGradient>
    <radialGradient gradientUnits="userSpaceOnUse" cx="20.542" cy="16.115" r="4.736" id="gradient-5-1" gradientTransform="matrix(0.043587, 2.122511, -2.27751, 0.04677, 56.348697, -28.239328)" xlink:href="#gradient-5"/>
    <linearGradient id="gradient-5" bx:pinned="true">
      <stop offset="0.107" style="stop-color: rgb(106, 106, 106);"/>
      <stop offset="1" style="stop-color: rgb(97, 97, 97);"/>
    </linearGradient>
    <radialGradient gradientUnits="userSpaceOnUse" cx="20.542" cy="16.115" r="4.736" id="gradient-5-3" gradientTransform="matrix(0.043587, 2.122511, -2.27751, 0.04677, 56.348697, -28.239328)" xlink:href="#gradient-5"/>
    <radialGradient gradientUnits="userSpaceOnUse" cx="20.542" cy="16.115" r="4.736" id="gradient-5-2" gradientTransform="matrix(0.043587, 2.122511, -2.27751, 0.04677, 56.348697, -28.239328)" xlink:href="#gradient-5"/>
    <radialGradient id="gradient-1-1" gradientUnits="userSpaceOnUse" cx="9.861" cy="10.598" r="7.284" gradientTransform="matrix(1, 0, 0, 1, 10.288538, 0.889131)" xlink:href="#gradient-1"/>
    <linearGradient id="gradient-1" bx:pinned="true">
      <stop offset="0.803" style="stop-color: rgb(244, 247, 149);"/>
      <stop offset="1" style="stop-color: rgba(250, 255, 94, 0);"/>
    </linearGradient>
    <radialGradient id="gradient-1-0" gradientUnits="userSpaceOnUse" cx="9.861" cy="10.598" r="7.284" gradientTransform="matrix(1, 0, 0, 1, 10.288538, 0.889131)" xlink:href="#gradient-1"/>
    <radialGradient id="gradient-1-2" gradientUnits="userSpaceOnUse" cx="9.861" cy="10.598" r="7.284" gradientTransform="matrix(1, 0, 0, 1, 10.288538, 0.889131)" xlink:href="#gradient-1"/>
    <radialGradient id="gradient-1-3" gradientUnits="userSpaceOnUse" cx="9.861" cy="10.598" r="7.284" gradientTransform="matrix(1, 0, 0, 1, 10.288538, 0.889131)" xlink:href="#gradient-1"/>
    <radialGradient id="gradient-1-10" gradientUnits="userSpaceOnUse" cx="9.861" cy="10.598" r="7.284" gradientTransform="matrix(1, 0, 0, 1, 10.288538, 0.889131)" xlink:href="#gradient-1"/>
    <radialGradient id="gradient-1-11" gradientUnits="userSpaceOnUse" cx="9.861" cy="10.598" r="7.284" gradientTransform="matrix(1, 0, 0, 1, 10.288538, 0.889131)" xlink:href="#gradient-1"/>
    <radialGradient id="gradient-1-12" gradientUnits="userSpaceOnUse" cx="9.861" cy="10.598" r="7.284" gradientTransform="matrix(1, 0, 0, 1, 10.288538, 0.889131)" xlink:href="#gradient-1"/>
    <radialGradient id="gradient-1-13" gradientUnits="userSpaceOnUse" cx="9.861" cy="10.598" r="7.284" gradientTransform="matrix(1, 0, 0, 1, 10.288538, 0.889131)" xlink:href="#gradient-1"/>
    <radialGradient id="gradient-1-4" gradientUnits="userSpaceOnUse" cx="9.861" cy="10.598" r="7.284" gradientTransform="matrix(1, 0, 0, 1, 10.288538, 0.889131)" xlink:href="#gradient-1"/>
    <radialGradient id="gradient-1-5" gradientUnits="userSpaceOnUse" cx="9.861" cy="10.598" r="7.284" gradientTransform="matrix(1, 0, 0, 1, 10.288538, 0.889131)" xlink:href="#gradient-1"/>
    <radialGradient id="gradient-1-6" gradientUnits="userSpaceOnUse" cx="9.861" cy="10.598" r="7.284" gradientTransform="matrix(1, 0, 0, 1, 10.288538, 0.889131)" xlink:href="#gradient-1"/>
    <radialGradient id="gradient-1-7" gradientUnits="userSpaceOnUse" cx="9.861" cy="10.598" r="7.284" gradientTransform="matrix(1, 0, 0, 1, 10.288538, 0.889131)" xlink:href="#gradient-1"/>
    <radialGradient id="gradient-1-8" gradientUnits="userSpaceOnUse" cx="9.861" cy="10.598" r="7.284" gradientTransform="matrix(1, 0, 0, 1, 10.288538, 0.889131)" xlink:href="#gradient-1"/>
    <radialGradient id="gradient-1-9" gradientUnits="userSpaceOnUse" cx="9.861" cy="10.598" r="7.284" gradientTransform="matrix(1, 0, 0, 1, 10.288538, 0.889131)" xlink:href="#gradient-1"/>
    <radialGradient id="gradient-1-14" gradientUnits="userSpaceOnUse" cx="9.861" cy="10.598" r="7.284" gradientTransform="matrix(1, 0, 0, 1, 10.288538, 0.889131)" xlink:href="#gradient-1"/>
    <radialGradient id="gradient-1-15" gradientUnits="userSpaceOnUse" cx="9.861" cy="10.598" r="7.284" gradientTransform="matrix(1, 0, 0, 1, 10.288538, 0.889131)" xlink:href="#gradient-1"/>
    <radialGradient id="gradient-1-16" gradientUnits="userSpaceOnUse" cx="9.861" cy="10.598" r="7.284" gradientTransform="matrix(1, 0, 0, 1, 10.288538, 0.889131)" xlink:href="#gradient-1"/>
    <radialGradient id="gradient-1-17" gradientUnits="userSpaceOnUse" cx="9.861" cy="10.598" r="7.284" gradientTransform="matrix(1, 0, 0, 1, 10.288538, 0.889131)" xlink:href="#gradient-1"/>
    <radialGradient id="gradient-1-18" gradientUnits="userSpaceOnUse" cx="9.861" cy="10.598" r="7.284" gradientTransform="matrix(1, 0, 0, 1, 10.288538, 0.889131)" xlink:href="#gradient-1"/>
    <radialGradient id="gradient-1-19" gradientUnits="userSpaceOnUse" cx="9.861" cy="10.598" r="7.284" gradientTransform="matrix(1, 0, 0, 1, 10.288538, 0.889131)" xlink:href="#gradient-1"/>
    <radialGradient id="gradient-1-20" gradientUnits="userSpaceOnUse" cx="9.861" cy="10.598" r="7.284" gradientTransform="matrix(1, 0, 0, 1, 10.288538, 0.889131)" xlink:href="#gradient-1"/>
    <radialGradient id="gradient-1-21" gradientUnits="userSpaceOnUse" cx="9.861" cy="10.598" r="7.284" gradientTransform="matrix(1, 0, 0, 1, 10.288538, 0.889131)" xlink:href="#gradient-1"/>
    <radialGradient id="gradient-1-22" gradientUnits="userSpaceOnUse" cx="9.861" cy="10.598" r="7.284" gradientTransform="matrix(1, 0, 0, 1, 10.288538, 0.889131)" xlink:href="#gradient-1"/>
    <radialGradient id="gradient-1-23" gradientUnits="userSpaceOnUse" cx="9.861" cy="10.598" r="7.284" gradientTransform="matrix(1, 0, 0, 1, 10.288538, 0.889131)" xlink:href="#gradient-1"/>
  </defs>
  <g transform="matrix(0.9999999999999999, 0, 0, 0.9999999999999999, -7.105427357601002e-15, 0)">
    <title>Wheel Front</title>
    <rect x="17.25" y="26.351" width="6.653" height="2.156" style="stroke: rgb(0, 0, 0); stroke-width: 0.5px; fill: rgb(122, 122, 122);"/>
    <circle style="stroke: rgb(0, 0, 0); stroke-width: 0.5px; fill: rgb(58, 58, 58);" cx="14.749" cy="28.001" r="3.114"/>
    <circle style="stroke: rgb(0, 0, 0); stroke-width: 0.5px; fill: rgb(58, 58, 58);" cx="26.378" cy="28.001" r="3.114"/>
    <circle style="stroke: rgb(0, 0, 0); stroke-width: 0.5px; fill: rgb(122, 122, 122);" cx="26.324" cy="28.025" r="1.256"/>
    <circle style="stroke: rgb(0, 0, 0); stroke-width: 0.5px; fill: rgb(122, 122, 122);" cx="14.748" cy="28.041" r="1.256"/>
  </g>
  <g transform="matrix(0.9999999999999999, 0, 0, 0.9999999999999999, 54.78890991210936, 0.020114000886678696)">
    <title>Wheel Back</title>
    <rect x="17.25" y="26.351" width="6.653" height="2.156" style="stroke: rgb(0, 0, 0); stroke-width: 0.5px; fill: rgb(122, 122, 122);"/>
    <circle style="stroke: rgb(0, 0, 0); stroke-width: 0.5px; fill: rgb(58, 58, 58);" cx="14.749" cy="28.001" r="3.114"/>
    <circle style="stroke: rgb(0, 0, 0); stroke-width: 0.5px; fill: rgb(58, 58, 58);" cx="26.378" cy="28.001" r="3.114"/>
    <circle style="stroke: rgb(0, 0, 0); stroke-width: 0.5px; fill: rgb(122, 122, 122);" cx="26.324" cy="28.025" r="1.256"/>
    <circle style="stroke: rgb(0, 0, 0); stroke-width: 0.5px; fill: rgb(122, 122, 122);" cx="14.748" cy="28.041" r="1.256"/>
  </g>
  <rect x="3.316" y="1.98" width="89.155" height="24.191" rx="2.629" ry="2.629" style="stroke-width: 0.5px; paint-order: fill; stroke: rgb(0, 0, 0); fill: url('#gradient-2-1');" transform="matrix(0.9999999999999999, 0, 0, 0.9999999999999999, -7.105427357601002e-15, 0)"/>
  <rect x="29.071" y="6.37" width="10.223" height="8.275" rx="2" ry="2" style="stroke: rgb(0, 0, 0); stroke-miterlimit: 1; stroke-width: 0.5px; fill: rgb(251, 255, 150);" transform="matrix(0.9999999999999999, 0, 0, 0.9999999999999999, -7.105427357601002e-15, 0)"/>
  <g transform="matrix(0.9999999999999999, 0, 0, 0.9999999999999999, -7.105427357601002e-15, 0.24163700640201569)" style="">
    <title>Door</title>
    <rect x="15.806" y="6.28" width="9.472" height="19.671" rx="1" ry="1" style="stroke: rgb(0, 0, 0); stroke-width: 0.5px; fill: url('#gradient-5-1');"/>
    <rect x="16.904" y="8.108" width="2.773" height="6.355" rx="1" ry="1" style="stroke: rgb(0, 0, 0); stroke-width: 0.5px; fill: rgb(251, 255, 150);"/>
    <rect x="21.371" y="8.167" width="2.773" height="6.355" rx="1" ry="1" style="stroke: rgb(0, 0, 0); stroke-width: 0.5px; fill: rgb(251, 255, 150);"/>
    <rect x="20.289" y="7.312" width="0.441" height="17.708" rx="0.221" ry="0.221" style="stroke-width: 0px; stroke: rgb(0, 0, 0);"/>
  </g>
  <g transform="matrix(0.9999999999999999, 0, 0, 0.9999999999999999, 27.47632598876953, 0.11007499694824219)" style="">
    <title>Door</title>
    <rect x="15.806" y="6.28" width="9.472" height="19.671" rx="1" ry="1" style="stroke: rgb(0, 0, 0); stroke-width: 0.5px; fill: url('#gradient-5-3');"/>
    <rect x="16.904" y="8.108" width="2.773" height="6.355" rx="1" ry="1" style="stroke: rgb(0, 0, 0); stroke-width: 0.5px; fill: rgb(251, 255, 150);"/>
    <rect x="21.371" y="8.167" width="2.773" height="6.355" rx="1" ry="1" style="stroke: rgb(0, 0, 0); stroke-width: 0.5px; fill: rgb(251, 255, 150);"/>
    <rect x="20.289" y="7.312" width="0.441" height="17.708" rx="0.221" ry="0.221" style="stroke-width: 0px; stroke: rgb(0, 0, 0);"/>
  </g>
  <g transform="matrix(0.9999999999999999, 0, 0, 0.9999999999999999, 55.092548370361314, 0.10159900784492493)" style="">
    <title>Door</title>
    <rect x="15.806" y="6.28" width="9.472" height="19.671" rx="1" ry="1" style="stroke: rgb(0, 0, 0); stroke-width: 0.5px; fill: url('#gradient-5-2');"/>
    <rect x="16.904" y="8.108" width="2.773" height="6.355" rx="1" ry="1" style="stroke: rgb(0, 0, 0); stroke-width: 0.5px; fill: rgb(251, 255, 150);"/>
    <rect x="21.371" y="8.167" width="2.773" height="6.355" rx="1" ry="1" style="stroke: rgb(0, 0, 0); stroke-width: 0.5px; fill: rgb(251, 255, 150);"/>
    <rect x="20.289" y="7.312" width="0.441" height="17.708" rx="0.221" ry="0.221" style="stroke-width: 0px; stroke: rgb(0, 0, 0);"/>
  </g>
  <rect x="56.565" y="6.297" width="10.223" height="8.275" rx="2" ry="2" style="stroke: rgb(0, 0, 0); stroke-miterlimit: 1; stroke-width: 0.5px; fill: rgb(251, 255, 150);" transform="matrix(0.9999999999999999, 0, 0, 0.9999999999999999, -7.105427357601002e-15, 0)"/>
  <rect x="83.853" y="6.237" width="5.072" height="8.275" rx="1.161" ry="1.161" style="stroke: rgb(0, 0, 0); stroke-miterlimit: 1; stroke-width: 0.5px; fill: rgb(251, 255, 150);" transform="matrix(0.9999999999999999, 0, 0, 0.9999999999999999, -7.105427357601002e-15, 0)"/>
  <rect x="7.029" y="6.272" width="5.072" height="8.275" rx="1.214" ry="1.214" style="stroke: rgb(0, 0, 0); stroke-miterlimit: 1; stroke-width: 0.5px; fill: rgb(251, 255, 150);" transform="matrix(0.9999999999999999, 0, 0, 0.9999999999999999, -7.105427357601002e-15, 0)"/>
  <rect x="3.317" y="6.362" width="2.625" height="6.807" style="stroke: rgb(0, 0, 0); stroke-width: 0.5px; fill: rgb(251, 255, 150);" rx="0.575" ry="0.575" transform="matrix(0.9999999999999999, 0, 0, 0.9999999999999999, -7.105427357601002e-15, 0)"/>
  <rect x="90.209" y="6.363" width="2.282" height="6.807" style="stroke: rgb(0, 0, 0); stroke-width: 0.5px; fill: rgb(251, 255, 150);" rx="0.575" ry="0.575" transform="matrix(0.9999999999999999, 0, 0, 0.9999999999999999, -7.105427357601002e-15, 0)"/>
  <rect x="6.839" y="16.469" width="5.486" height="0.353" rx="0.176" ry="0.176" style="stroke-width: 0.25px; stroke: rgb(0, 0, 0);" transform="matrix(0.9999999999999999, 0, 0, 0.9999999999999999, -7.105427357601002e-15, 0)"/>
  <rect x="6.859" y="18.37" width="5.486" height="0.353" rx="0.176" ry="0.176" style="stroke-width: 0.25px; stroke: rgb(0, 0, 0);" transform="matrix(0.9999999999999999, 0, 0, 0.9999999999999999, -7.105427357601002e-15, 0)"/>
  <rect x="6.906" y="20.257" width="5.486" height="0.353" rx="0.176" ry="0.176" style="stroke-width: 0.25px; stroke: rgb(0, 0, 0);" transform="matrix(0.9999999999999999, 0, 0, 0.9999999999999999, -7.105427357601002e-15, 0)"/>
  <rect x="6.874" y="22.275" width="5.486" height="0.353" rx="0.176" ry="0.176" style="stroke-width: 0.25px; stroke: rgb(0, 0, 0);" transform="matrix(0.9999999999999999, 0, 0, 0.9999999999999999, -7.105427357601002e-15, 0)"/>
  <rect x="27.354" y="16.513" width="14.185" height="0.268" rx="0.176" ry="0.176" style="stroke-width: 0.25px; stroke: rgb(0, 0, 0);" transform="matrix(0.9999999999999999, 0, 0, 0.9999999999999999, -7.105427357601002e-15, 0)"/>
  <rect x="27.295" y="18.462" width="14.185" height="0.268" rx="0.176" ry="0.176" style="stroke-width: 0.25px; stroke: rgb(0, 0, 0);" transform="matrix(0.9999999999999999, 0, 0, 0.9999999999999999, -7.105427357601002e-15, 0)"/>
  <rect x="27.253" y="20.342" width="14.185" height="0.268" rx="0.176" ry="0.176" style="stroke-width: 0.25px; stroke: rgb(0, 0, 0);" transform="matrix(0.9999999999999999, 0, 0, 0.9999999999999999, -7.105427357601002e-15, 0)"/>
  <rect x="27.258" y="22.319" width="14.185" height="0.268" rx="0.176" ry="0.176" style="stroke-width: 0.25px; stroke: rgb(0, 0, 0);" transform="matrix(0.9999999999999999, 0, 0, 0.9999999999999999, -7.105427357601002e-15, 0)"/>
  <rect x="54.731" y="16.505" width="14.185" height="0.268" rx="0.176" ry="0.176" style="stroke-width: 0.25px; stroke: rgb(0, 0, 0);" transform="matrix(0.9999999999999999, 0, 0, 0.9999999999999999, -7.105427357601002e-15, 0)"/>
  <rect x="54.672" y="18.454" width="14.185" height="0.268" rx="0.176" ry="0.176" style="stroke-width: 0.25px; stroke: rgb(0, 0, 0);" transform="matrix(0.9999999999999999, 0, 0, 0.9999999999999999, -7.105427357601002e-15, 0)"/>
  <rect x="54.63" y="20.334" width="14.185" height="0.268" rx="0.176" ry="0.176" style="stroke-width: 0.25px; stroke: rgb(0, 0, 0);" transform="matrix(0.9999999999999999, 0, 0, 0.9999999999999999, -7.105427357601002e-15, 0)"/>
  <rect x="54.635" y="22.311" width="14.185" height="0.268" rx="0.176" ry="0.176" style="stroke-width: 0.25px; stroke: rgb(0, 0, 0);" transform="matrix(0.9999999999999999, 0, 0, 0.9999999999999999, -7.105427357601002e-15, 0)"/>
  <rect x="83.752" y="16.507" width="5.486" height="0.353" rx="0.176" ry="0.176" style="stroke-width: 0.25px; stroke: rgb(0, 0, 0);" transform="matrix(0.9999999999999999, 0, 0, 0.9999999999999999, -7.105427357601002e-15, 0)"/>
  <rect x="83.772" y="18.408" width="5.486" height="0.353" rx="0.176" ry="0.176" style="stroke-width: 0.25px; stroke: rgb(0, 0, 0);" transform="matrix(0.9999999999999999, 0, 0, 0.9999999999999999, -7.105427357601002e-15, 0)"/>
  <rect x="83.819" y="20.295" width="5.486" height="0.353" rx="0.176" ry="0.176" style="stroke-width: 0.25px; stroke: rgb(0, 0, 0);" transform="matrix(0.9999999999999999, 0, 0, 0.9999999999999999, -7.105427357601002e-15, 0)"/>
  <rect x="83.787" y="22.313" width="5.486" height="0.353" rx="0.176" ry="0.176" style="stroke-width: 0.25px; stroke: rgb(0, 0, 0);" transform="matrix(0.9999999999999999, 0, 0, 0.9999999999999999, -7.105427357601002e-15, 0)"/>
  <rect x="6.541" y="2.865" width="82.808" height="0.234" rx="0.176" ry="0.176" style="stroke-width: 0.25px; stroke: rgb(0, 0, 0);" transform="matrix(0.9999999999999999, 0, 0, 0.9999999999999999, -7.105427357601002e-15, 0)"/>
  <rect x="6.52" y="3.691" width="82.808" height="0.234" rx="0.176" ry="0.176" style="stroke-width: 0.25px; stroke: rgb(0, 0, 0);" transform="matrix(0.9999999999999999, 0, 0, 0.9999999999999999, -7.105427357601002e-15, 0)"/>
  <g transform="matrix(0.9999999999999999, 0, 0, 0.9999999999999999, -7.105427357601002e-15, 0)">
    <title>Lattice</title>
    <line style="fill: rgb(216, 216, 216); stroke: rgb(0, 0, 0); stroke-width: 0.5px; stroke-linecap: round;" x1="0.904" y1="14.441" x2="5.601" y2="19.658"/>
    <line style="fill: rgb(216, 216, 216); stroke: rgb(0, 0, 0); stroke-width: 0.5px;" x1="0.829" y1="19.779" x2="5.663" y2="14.392"/>
    <polygon style="fill: rgb(216, 216, 216); stroke: rgb(0, 0, 0); stroke-linecap: round; stroke-linejoin: round; stroke-width: 0.5px; fill-opacity: 0;" points="0.922 17.005 3.235 14.495 5.691 17.13 3.36 19.64"/>
    <line style="fill: rgb(216, 216, 216); stroke: rgb(0, 0, 0); stroke-width: 0.5px; stroke-linecap: round;" x1="0.868" y1="13.778" x2="0.796" y2="20.895"/>
    <path style="fill: rgb(216, 216, 216); stroke: rgb(0, 0, 0); stroke-linecap: round; stroke-width: 0.5px;" d="M 5.673 13.151 C 5.717 13.151 5.655 24.965 5.655 24.965"/>
  </g>
  <g transform="matrix(0.9999999999999999, 0, 0, 0.9999999999999999, 89.4529571533203, -0.04726500064134598)">
    <title>Lattice</title>
    <line style="fill: rgb(216, 216, 216); stroke: rgb(0, 0, 0); stroke-width: 0.5px; stroke-linecap: round;" x1="0.904" y1="14.441" x2="5.601" y2="19.658"/>
    <line style="fill: rgb(216, 216, 216); stroke: rgb(0, 0, 0); stroke-width: 0.5px;" x1="0.829" y1="19.779" x2="5.663" y2="14.392"/>
    <line style="fill: rgb(216, 216, 216); stroke: rgb(0, 0, 0); stroke-width: 0.5px; stroke-linecap: round;" x1="0.789" y1="12.773" x2="0.789" y2="24.93"/>
    <polygon style="fill: rgb(216, 216, 216); stroke: rgb(0, 0, 0); stroke-linecap: round; stroke-linejoin: round; stroke-width: 0.5px; fill-opacity: 0;" points="0.922 17.005 3.235 14.495 5.691 17.13 3.36 19.64"/>
    <path style="fill: rgb(216, 216, 216); stroke: rgb(0, 0, 0); stroke-linecap: round; stroke-width: 0.5px; transform-box: fill-box; transform-origin: 50% 50%;" d="M 5.666 13.987 C 5.687 13.987 5.655 20.864 5.655 20.864"/>
  </g>
  <circle style="stroke-opacity: 0; stroke: url('#gradient-1-0'); fill: url('#gradient-1-1'); fill-opacity: 0.12; transform-origin: 20.15px 11.487px;" cx="20.15" cy="11.487" r="7.284" transform="matrix(1.21538901329, 0.070427015424, -0.074013017118, 0.844645023346, 14.172068980455, -1.145157859578)"/>
  <circle style="stroke-opacity: 0; fill-opacity: 0.12; fill: url('#gradient-1-2'); stroke: url('#gradient-1-3'); transform-origin: 20.15px 11.487px;" cx="20.15" cy="11.487" r="7.284" transform="matrix(1.115646004677, 0.064647018909, -0.079464018345, 0.906851112843, 41.496275752063, -1.311460787927)"/>
  <circle style="stroke-opacity: 0; fill-opacity: 0.12; fill: url('#gradient-1-10'); stroke: url('#gradient-1-11'); transform-origin: 20.15px 11.487px;" cx="20.15" cy="11.487" r="7.284" transform="matrix(0.566383898258, 0.032818995416, -0.08175701648, 0.933024227619, -10.787970554446, -0.650536546845)"/>
  <circle style="stroke-opacity: 0; fill-opacity: 0.12; fill: url('#gradient-1-12'); stroke: url('#gradient-1-13'); transform-origin: 20.15px 11.487px;" cx="20.15" cy="11.487" r="7.284" transform="matrix(0.581578910351, 0.033700000495, -0.082203015685, 0.938117146492, 65.7998718904, -1.080089221371)"/>
  <circle style="stroke-opacity: 0; fill-opacity: 0.12; fill: url('#gradient-1-4'); stroke: url('#gradient-1-5'); transform-origin: 20.15px 11.487px;" cx="20.15" cy="11.487" r="7.284" transform="matrix(0.405272006989, 0.023484000936, -0.058378007263, 0.666202008724, -1.745246959634, 0.066524917176)"/>
  <circle style="stroke-opacity: 0; fill-opacity: 0.12; fill: url('#gradient-1-6'); stroke: url('#gradient-1-7'); transform-origin: 20.15px 11.487px;" cx="20.15" cy="11.487" r="7.284" transform="matrix(0.405272006989, 0.023484000936, -0.058378007263, 0.666202008724, 2.239069866233, 0.317801887086)"/>
  <circle style="stroke-opacity: 0; fill-opacity: 0.12; fill: url('#gradient-1-8'); stroke: url('#gradient-1-9'); transform-origin: 20.15px 11.487px;" cx="20.15" cy="11.487" r="7.284" transform="matrix(0.405272006989, 0.023484000936, -0.058378007263, 0.666202008724, 25.950056651612, -0.084470644677)"/>
  <circle style="stroke-opacity: 0; fill-opacity: 0.12; fill: url('#gradient-1-14'); stroke: url('#gradient-1-15'); transform-origin: 20.15px 11.487px;" cx="20.15" cy="11.487" r="7.284" transform="matrix(0.405272006989, 0.023484000936, -0.058378007263, 0.666202008724, 29.93437437548, 0.166806006898)"/>
  <circle style="stroke-opacity: 0; fill-opacity: 0.12; fill: url('#gradient-1-16'); stroke: url('#gradient-1-17'); transform-origin: 20.15px 11.487px;" cx="20.15" cy="11.487" r="7.284" transform="matrix(0.405272006989, 0.023484000936, -0.058378007263, 0.666202008724, 53.604532405747, -0.03529766237)"/>
  <circle style="stroke-opacity: 0; fill-opacity: 0.12; fill: url('#gradient-1-18'); stroke: url('#gradient-1-19'); transform-origin: 20.15px 11.487px;" cx="20.15" cy="11.487" r="7.284" transform="matrix(0.405272006989, 0.023484000936, -0.058378007263, 0.666202008724, 57.588840698823, 0.215979531501)"/>
  <circle style="stroke-opacity: 0; fill-opacity: 0.12; fill: url('#gradient-1-20'); stroke: url('#gradient-1-21'); transform-origin: 20.15px 11.487px;" cx="20.15" cy="11.487" r="11.884" transform="matrix(0.149000003934, 0.232073023915, -0.067060001194, 0.71170592308, -15.55634791169, -1.673663366602)"/>
  <circle style="stroke-opacity: 0; fill-opacity: 0.12; fill: url('#gradient-1-22'); stroke: url('#gradient-1-23'); transform-origin: 20.15px 11.487px;" cx="20.15" cy="11.487" r="11.884" transform="matrix(0.196782976389, -0.244191005826, 0.040167007595, 0.713729023933, 70.893940062818, -1.579267912121)"/>
</svg>